<?xml version="1.0" encoding="UTF-8"?>
<!DOCTYPE svg PUBLIC "-//W3C//DTD SVG 1.1//EN" "http://www.w3.org/Graphics/SVG/1.1/DTD/svg11.dtd">
<!-- Creator: CorelDRAW 2021 (64-Bit) -->
<svg xmlns="http://www.w3.org/2000/svg" xml:space="preserve" width="198px" height="45px" version="1.1" style="shape-rendering:geometricPrecision; text-rendering:geometricPrecision; image-rendering:optimizeQuality; fill-rule:evenodd; clip-rule:evenodd"
viewBox="0 0 196.75 44.6"
 xmlns:xlink="http://www.w3.org/1999/xlink"
 xmlns:xodm="http://www.corel.com/coreldraw/odm/2003">
 <defs>
  <style type="text/css">
   <![CDATA[
    .fil0 {fill:#D83135}
    .fil1 {fill:#FEFEFE;fill-rule:nonzero}
   ]]>
  </style>
 </defs>
 <g id="OBJECTS">
  <metadata id="CorelCorpID_0Corel-Layer"/>
  <g id="_2777776908000">
   <path class="fil0" d="M44.48 24.63l-5.64 -0.59c-0.03,0.29 -0.07,0.58 -0.12,0.87l5.61 0.88c0.06,-0.38 0.11,-0.77 0.15,-1.16zm-19.85 -24.51c0.39,0.04 0.78,0.09 1.16,0.15l-0.88 5.61c-0.29,-0.04 -0.58,-0.08 -0.87,-0.11l0.59 -5.65zm3.44 0.64c0.38,0.1 0.76,0.21 1.12,0.33l-1.75 5.4c-0.27,-0.09 -0.55,-0.17 -0.83,-0.25l1.46 -5.48zm3.31 1.16c0.35,0.16 0.7,0.33 1.05,0.51l-2.58 5.06c-0.26,-0.14 -0.52,-0.26 -0.79,-0.38l2.32 -5.19zm3.07 1.68c0.33,0.21 0.65,0.43 0.96,0.66l-3.34 4.59c-0.23,-0.17 -0.47,-0.34 -0.72,-0.49l3.1 -4.76zm2.78 2.13c0.28,0.26 0.57,0.53 0.84,0.8l-4.01 4.02c-0.21,-0.21 -0.42,-0.41 -0.63,-0.6l3.8 -4.22zm2.4 2.54c0.25,0.3 0.48,0.61 0.71,0.92l-4.59 3.34c-0.17,-0.23 -0.34,-0.46 -0.53,-0.69l4.41 -3.57zm1.99 2.88c0.19,0.33 0.38,0.68 0.56,1.02l-5.06 2.58c-0.13,-0.25 -0.27,-0.51 -0.42,-0.76l4.92 -2.84zm1.51 3.16c0.14,0.36 0.27,0.73 0.39,1.1l-5.4 1.75c-0.09,-0.27 -0.19,-0.55 -0.29,-0.82l5.3 -2.03zm0.99 3.36c0.08,0.38 0.15,0.76 0.21,1.15l-5.61 0.88c-0.04,-0.29 -0.09,-0.58 -0.15,-0.86l5.55 -1.17zm0.45 3.47c0.02,0.38 0.03,0.77 0.03,1.16l-5.67 0c0,-0.29 -0.01,-0.58 -0.03,-0.87l5.67 -0.29zm-0.72 6.93c-0.1,0.38 -0.21,0.76 -0.33,1.12l-5.4 -1.75c0.09,-0.27 0.17,-0.55 0.24,-0.83l5.49 1.46zm-1.17 3.31c-0.16,0.35 -0.33,0.7 -0.5,1.05l-5.06 -2.58c0.13,-0.26 0.26,-0.52 0.37,-0.79l5.19 2.32zm-1.67 3.07c-0.22,0.33 -0.44,0.65 -0.67,0.96l-4.59 -3.34c0.17,-0.23 0.34,-0.47 0.5,-0.72l4.76 3.1zm-2.14 2.77c-0.26,0.29 -0.52,0.58 -0.8,0.85l-4.01 -4.01c0.2,-0.21 0.4,-0.42 0.6,-0.64l4.21 3.8zm-2.53 2.41c-0.3,0.25 -0.61,0.48 -0.93,0.71l-3.34 -4.59c0.24,-0.17 0.47,-0.34 0.69,-0.53l3.58 4.41zm-2.88 1.99c-0.34,0.19 -0.68,0.38 -1.03,0.56l-2.58 -5.06c0.26,-0.13 0.51,-0.27 0.76,-0.42l2.85 4.92zm-3.16 1.51c-0.37,0.14 -0.73,0.27 -1.11,0.39l-1.75 -5.4c0.28,-0.09 0.55,-0.19 0.82,-0.29l2.04 5.3zm-3.36 0.99c-0.38,0.08 -0.77,0.15 -1.15,0.21l-0.88 -5.61c0.28,-0.04 0.57,-0.09 0.85,-0.15l1.18 5.55zm-3.47 0.45c-0.39,0.02 -0.78,0.03 -1.17,0.03l0 -5.67c0.29,0 0.59,-0.01 0.87,-0.03l0.3 5.67zm-3.5 -0.09c-0.39,-0.04 -0.77,-0.09 -1.15,-0.15l0.88 -5.61c0.28,0.05 0.57,0.09 0.86,0.12l-0.59 5.64zm-3.44 -0.63c-0.38,-0.1 -0.75,-0.21 -1.12,-0.33l1.75 -5.4c0.28,0.09 0.56,0.17 0.84,0.24l-1.47 5.49zm-3.3 -1.17c-0.36,-0.16 -0.71,-0.33 -1.06,-0.5l2.58 -5.06c0.26,0.13 0.53,0.26 0.79,0.37l-2.31 5.19zm-3.08 -1.67c-0.32,-0.22 -0.64,-0.44 -0.96,-0.67l3.34 -4.59c0.24,0.17 0.48,0.34 0.72,0.5l-3.1 4.76zm-2.77 -2.14c-0.29,-0.26 -0.57,-0.52 -0.85,-0.8l4.02 -4.01c0.2,0.2 0.41,0.4 0.63,0.6l-3.8 4.21zm-2.41 -2.53c-0.24,-0.3 -0.48,-0.61 -0.71,-0.93l4.59 -3.34c0.17,0.24 0.35,0.47 0.53,0.69l-4.41 3.58zm-1.98 -2.88c-0.2,-0.34 -0.38,-0.68 -0.56,-1.03l5.06 -2.58c0.13,0.26 0.27,0.51 0.41,0.76l-4.91 2.85zm-1.51 -3.16c-0.14,-0.37 -0.27,-0.73 -0.39,-1.11l5.4 -1.75c0.09,0.28 0.18,0.55 0.29,0.82l-5.3 2.04zm-1 -3.36c-0.08,-0.38 -0.15,-0.77 -0.21,-1.15l5.61 -0.88c0.05,0.28 0.1,0.57 0.16,0.85l-5.56 1.18zm-0.45 -3.47c-0.02,-0.39 -0.03,-0.78 -0.03,-1.17l5.68 0c0,0.29 0,0.59 0.02,0.87l-5.67 0.3zm0.09 -3.5c0.04,-0.39 0.09,-0.77 0.15,-1.15l5.61 0.88c-0.04,0.28 -0.08,0.57 -0.11,0.86l-5.65 -0.59zm0.64 -3.44c0.1,-0.38 0.21,-0.75 0.33,-1.12l5.4 1.75c-0.09,0.28 -0.17,0.56 -0.25,0.84l-5.48 -1.47zm1.16 -3.3c0.16,-0.36 0.33,-0.71 0.51,-1.06l5.05 2.59c-0.13,0.25 -0.25,0.52 -0.37,0.78l-5.19 -2.31zm1.68 -3.08c0.21,-0.32 0.43,-0.64 0.66,-0.96l4.59 3.34c-0.17,0.24 -0.34,0.48 -0.49,0.72l-4.76 -3.1zm2.13 -2.77c0.26,-0.29 0.53,-0.57 0.8,-0.85l4.02 4.02c-0.21,0.2 -0.41,0.41 -0.6,0.63l-4.22 -3.8zm2.54 -2.41c0.3,-0.24 0.61,-0.48 0.92,-0.71l3.34 4.59c-0.23,0.17 -0.46,0.35 -0.69,0.53l-3.57 -4.41zm2.88 -1.98c0.33,-0.2 0.68,-0.38 1.02,-0.56l2.58 5.05c-0.25,0.14 -0.51,0.28 -0.76,0.42l-2.84 -4.91zm3.16 -1.51c0.36,-0.14 0.73,-0.27 1.1,-0.39l1.75 5.4c-0.27,0.09 -0.55,0.18 -0.82,0.29l-2.03 -5.3zm3.36 -1c0.38,-0.08 0.76,-0.15 1.15,-0.21l0.88 5.61c-0.29,0.05 -0.58,0.1 -0.86,0.16l-1.17 -5.56zm3.47 -0.45c0.38,-0.02 0.77,-0.03 1.16,-0.03l0 5.68c-0.29,0 -0.58,0 -0.87,0.02l-0.29 -5.67z"/>
   <path class="fil1" d="M51.92 21.01l6.66 0 0 -1.02 -5.55 0 0 -8.83 -1.11 0 0 9.85zm17.41 -4.94c0,-0.68 -0.12,-1.33 -0.36,-1.95 -0.24,-0.61 -0.58,-1.15 -1.02,-1.61 -0.44,-0.47 -0.97,-0.84 -1.58,-1.11 -0.62,-0.27 -1.3,-0.41 -2.05,-0.41 -0.75,0 -1.43,0.14 -2.05,0.42 -0.62,0.28 -1.15,0.65 -1.59,1.12 -0.44,0.47 -0.79,1.01 -1.03,1.62 -0.24,0.62 -0.37,1.27 -0.37,1.95 0,0.69 0.12,1.34 0.36,1.95 0.24,0.62 0.58,1.15 1.02,1.62 0.44,0.46 0.97,0.83 1.59,1.1 0.61,0.28 1.29,0.41 2.04,0.41 0.75,0 1.44,-0.14 2.06,-0.41 0.62,-0.28 1.15,-0.65 1.59,-1.12 0.44,-0.47 0.78,-1.01 1.03,-1.63 0.24,-0.61 0.36,-1.26 0.36,-1.95zm-1.15 0.03c0,0.56 -0.1,1.09 -0.29,1.58 -0.19,0.5 -0.46,0.93 -0.8,1.29 -0.33,0.37 -0.74,0.66 -1.21,0.87 -0.48,0.21 -1,0.31 -1.56,0.31 -0.56,0 -1.08,-0.1 -1.55,-0.32 -0.48,-0.22 -0.89,-0.51 -1.23,-0.87 -0.35,-0.37 -0.62,-0.8 -0.81,-1.3 -0.2,-0.49 -0.29,-1.02 -0.29,-1.59 0,-0.56 0.09,-1.09 0.29,-1.58 0.19,-0.49 0.45,-0.92 0.79,-1.29 0.34,-0.36 0.75,-0.65 1.22,-0.86 0.47,-0.21 0.99,-0.32 1.55,-0.32 0.57,0 1.09,0.11 1.56,0.32 0.47,0.22 0.88,0.51 1.23,0.88 0.35,0.36 0.62,0.79 0.81,1.29 0.19,0.5 0.29,1.03 0.29,1.59zm10.4 2.96l-6.2 -7.9 -1.05 0 0 9.85 1.09 0 0 -8.07 6.36 8.07 0.88 0 0 -9.85 -1.08 0 0 7.9zm12.18 -2.99c0,-0.69 -0.13,-1.34 -0.38,-1.94 -0.26,-0.6 -0.61,-1.12 -1.08,-1.56 -0.46,-0.44 -1.02,-0.79 -1.66,-1.03 -0.64,-0.25 -1.35,-0.38 -2.12,-0.38l-3.42 0 0 9.85 3.42 0c0.77,0 1.48,-0.12 2.12,-0.38 0.64,-0.25 1.2,-0.6 1.66,-1.04 0.47,-0.44 0.82,-0.96 1.08,-1.57 0.25,-0.6 0.38,-1.25 0.38,-1.95zm-1.16 0.03c0,0.55 -0.09,1.07 -0.28,1.54 -0.2,0.46 -0.47,0.87 -0.82,1.23 -0.35,0.35 -0.78,0.62 -1.29,0.82 -0.5,0.2 -1.07,0.3 -1.69,0.3l-2.3 0 0 -7.8 2.3 0c0.62,0 1.19,0.1 1.69,0.3 0.51,0.2 0.94,0.48 1.29,0.83 0.35,0.35 0.62,0.77 0.82,1.25 0.19,0.48 0.28,0.99 0.28,1.53zm12.77 -0.03c0,-0.68 -0.12,-1.33 -0.36,-1.95 -0.24,-0.61 -0.58,-1.15 -1.02,-1.61 -0.44,-0.47 -0.97,-0.84 -1.58,-1.11 -0.62,-0.27 -1.3,-0.41 -2.05,-0.41 -0.75,0 -1.43,0.14 -2.05,0.42 -0.62,0.28 -1.15,0.65 -1.59,1.12 -0.44,0.47 -0.79,1.01 -1.03,1.62 -0.24,0.62 -0.37,1.27 -0.37,1.95 0,0.69 0.12,1.34 0.36,1.95 0.24,0.62 0.58,1.15 1.02,1.62 0.44,0.46 0.97,0.83 1.59,1.1 0.61,0.28 1.29,0.41 2.04,0.41 0.75,0 1.44,-0.14 2.06,-0.41 0.62,-0.28 1.15,-0.65 1.59,-1.12 0.44,-0.47 0.78,-1.01 1.03,-1.63 0.24,-0.61 0.36,-1.26 0.36,-1.95zm-1.15 0.03c0,0.56 -0.1,1.09 -0.29,1.58 -0.19,0.5 -0.46,0.93 -0.8,1.29 -0.33,0.37 -0.74,0.66 -1.21,0.87 -0.48,0.21 -1,0.31 -1.56,0.31 -0.56,0 -1.08,-0.1 -1.55,-0.32 -0.48,-0.22 -0.89,-0.51 -1.23,-0.87 -0.35,-0.37 -0.62,-0.8 -0.81,-1.3 -0.2,-0.49 -0.29,-1.02 -0.29,-1.59 0,-0.56 0.09,-1.09 0.29,-1.58 0.19,-0.49 0.45,-0.92 0.79,-1.29 0.34,-0.36 0.75,-0.65 1.22,-0.86 0.47,-0.21 0.99,-0.32 1.55,-0.32 0.57,0 1.08,0.11 1.56,0.32 0.47,0.22 0.88,0.51 1.23,0.88 0.35,0.36 0.62,0.79 0.81,1.29 0.19,0.5 0.29,1.03 0.29,1.59zm10.4 2.96l-6.2 -7.9 -1.05 0 0 9.85 1.09 0 0 -8.07 6.36 8.07 0.88 0 0 -9.85 -1.08 0 0 7.9zm16.27 0.62l0 -3.92 -4.06 0 0 0.99 2.99 0 0 2.46c-0.33,0.27 -0.75,0.5 -1.25,0.7 -0.5,0.19 -1.03,0.29 -1.59,0.29 -0.6,0 -1.14,-0.11 -1.62,-0.31 -0.48,-0.21 -0.88,-0.5 -1.22,-0.86 -0.34,-0.37 -0.6,-0.8 -0.78,-1.31 -0.19,-0.5 -0.28,-1.05 -0.28,-1.64 0,-0.55 0.1,-1.08 0.28,-1.57 0.19,-0.5 0.45,-0.93 0.78,-1.29 0.33,-0.37 0.72,-0.66 1.18,-0.88 0.46,-0.21 0.96,-0.32 1.51,-0.32 0.34,0 0.66,0.03 0.95,0.09 0.28,0.05 0.54,0.13 0.78,0.23 0.24,0.1 0.47,0.21 0.67,0.35 0.21,0.14 0.41,0.29 0.59,0.46l0.72 -0.85c-0.24,-0.2 -0.49,-0.39 -0.75,-0.55 -0.26,-0.17 -0.54,-0.31 -0.83,-0.42 -0.3,-0.11 -0.62,-0.2 -0.96,-0.25 -0.34,-0.06 -0.72,-0.09 -1.13,-0.09 -0.74,0 -1.42,0.14 -2.02,0.42 -0.61,0.28 -1.12,0.65 -1.56,1.12 -0.43,0.47 -0.76,1.01 -1,1.63 -0.24,0.62 -0.36,1.27 -0.36,1.94 0,0.71 0.11,1.37 0.34,1.99 0.23,0.61 0.57,1.15 1,1.61 0.44,0.46 0.96,0.82 1.58,1.09 0.61,0.26 1.31,0.39 2.09,0.39 0.83,0 1.59,-0.15 2.26,-0.44 0.67,-0.29 1.23,-0.65 1.69,-1.06zm10.31 1.33l-3.03 -4.02c0.39,-0.07 0.74,-0.18 1.07,-0.34 0.33,-0.16 0.61,-0.36 0.85,-0.6 0.24,-0.23 0.43,-0.52 0.56,-0.84 0.13,-0.32 0.2,-0.69 0.2,-1.1 0,-0.45 -0.09,-0.85 -0.26,-1.21 -0.17,-0.36 -0.41,-0.67 -0.71,-0.93 -0.31,-0.26 -0.69,-0.46 -1.12,-0.6 -0.44,-0.14 -0.93,-0.21 -1.47,-0.21l-4.24 0 0 9.85 1.11 0 0 -3.82 2.82 0 2.85 3.82 1.37 0zm-1.47 -6.86c0,0.32 -0.06,0.61 -0.19,0.86 -0.12,0.26 -0.3,0.47 -0.53,0.65 -0.22,0.17 -0.49,0.31 -0.8,0.4 -0.31,0.09 -0.65,0.14 -1.02,0.14l-3.03 0 0 -4.01 3.05 0c0.8,0 1.42,0.17 1.86,0.52 0.44,0.34 0.66,0.82 0.66,1.44zm7.83 -3.06l-1.04 0 -4.49 9.92 1.14 0 1.17 -2.6 5.36 0 1.16 2.6 1.19 0 -4.49 -9.92zm1.71 6.33l-4.49 0 2.25 -5.02 2.24 5.02zm13.03 -1.35c0,-0.69 -0.13,-1.34 -0.38,-1.94 -0.25,-0.6 -0.61,-1.12 -1.08,-1.56 -0.46,-0.44 -1.01,-0.79 -1.66,-1.03 -0.64,-0.25 -1.35,-0.38 -2.11,-0.38l-3.42 0 0 9.85 3.42 0c0.76,0 1.47,-0.12 2.11,-0.38 0.65,-0.25 1.2,-0.6 1.66,-1.04 0.47,-0.44 0.83,-0.96 1.08,-1.57 0.25,-0.6 0.38,-1.25 0.38,-1.95zm-1.15 0.03c0,0.55 -0.1,1.07 -0.29,1.54 -0.19,0.46 -0.47,0.87 -0.82,1.23 -0.35,0.35 -0.78,0.62 -1.29,0.82 -0.5,0.2 -1.07,0.3 -1.68,0.3l-2.31 0 0 -7.8 2.31 0c0.61,0 1.18,0.1 1.68,0.3 0.51,0.2 0.94,0.48 1.29,0.83 0.35,0.35 0.63,0.77 0.82,1.25 0.19,0.48 0.29,0.99 0.29,1.53zm11.2 -4.94l-1.11 0 0 5.73c0,1.08 -0.27,1.89 -0.8,2.43 -0.54,0.55 -1.26,0.82 -2.17,0.82 -0.95,0 -1.69,-0.29 -2.22,-0.86 -0.53,-0.57 -0.79,-1.39 -0.79,-2.46l0 -5.66 -1.11 0 0 5.73c0,0.69 0.1,1.31 0.29,1.84 0.2,0.54 0.48,0.99 0.84,1.35 0.36,0.36 0.79,0.63 1.3,0.81 0.5,0.19 1.05,0.28 1.66,0.28 0.62,0 1.18,-0.09 1.68,-0.28 0.51,-0.18 0.94,-0.45 1.3,-0.82 0.36,-0.37 0.64,-0.82 0.84,-1.37 0.19,-0.54 0.29,-1.17 0.29,-1.89l0 -5.65zm6.62 -0.07l-1.04 0 -4.49 9.92 1.14 0 1.17 -2.6 5.36 0 1.15 2.6 1.2 0 -4.49 -9.92zm1.7 6.33l-4.49 0 2.26 -5.02 2.23 5.02zm6.83 -5.23l3.31 0 0 -1.03 -7.73 0 0 1.03 3.31 0 0 8.82 1.11 0 0 -8.82zm12.18 -1.03l-7.12 0 0 9.85 7.19 0 0 -1.01 -6.08 0 0 -3.45 5.38 0 0 -1.01 -5.38 0 0 -3.36 6.01 0 0 -1.02zm-143.9 16.51c0,-0.23 0.05,-0.44 0.15,-0.64 0.09,-0.19 0.24,-0.37 0.42,-0.51 0.18,-0.14 0.4,-0.25 0.66,-0.33 0.26,-0.09 0.55,-0.13 0.87,-0.13 0.5,0 0.99,0.08 1.45,0.25 0.47,0.17 0.93,0.44 1.39,0.82l0.65 -0.86c-0.51,-0.4 -1.03,-0.7 -1.57,-0.9 -0.54,-0.2 -1.17,-0.3 -1.9,-0.3 -0.47,0 -0.9,0.07 -1.29,0.21 -0.4,0.13 -0.74,0.32 -1.03,0.56 -0.29,0.24 -0.51,0.53 -0.67,0.85 -0.16,0.33 -0.24,0.7 -0.24,1.09 0,0.41 0.06,0.77 0.19,1.07 0.14,0.3 0.34,0.57 0.61,0.79 0.27,0.23 0.62,0.42 1.04,0.58 0.42,0.16 0.91,0.3 1.47,0.42 0.52,0.11 0.94,0.23 1.28,0.35 0.33,0.13 0.59,0.26 0.78,0.41 0.19,0.15 0.32,0.32 0.4,0.5 0.07,0.19 0.11,0.4 0.11,0.63 0,0.51 -0.2,0.91 -0.6,1.23 -0.4,0.31 -0.93,0.46 -1.6,0.46 -0.68,0 -1.29,-0.11 -1.81,-0.34 -0.53,-0.23 -1.05,-0.58 -1.56,-1.05l-0.69 0.81c0.59,0.54 1.21,0.93 1.86,1.18 0.65,0.26 1.37,0.39 2.16,0.39 0.49,0 0.94,-0.07 1.35,-0.2 0.42,-0.13 0.77,-0.32 1.06,-0.57 0.29,-0.24 0.52,-0.54 0.69,-0.88 0.17,-0.35 0.25,-0.74 0.25,-1.16 0,-0.76 -0.26,-1.36 -0.78,-1.79 -0.52,-0.43 -1.33,-0.77 -2.43,-1.01 -0.54,-0.12 -0.99,-0.24 -1.33,-0.36 -0.35,-0.13 -0.62,-0.27 -0.82,-0.42 -0.2,-0.16 -0.33,-0.33 -0.41,-0.52 -0.07,-0.19 -0.11,-0.4 -0.11,-0.63zm16.24 5.83l-0.73 -0.71c-0.47,0.45 -0.95,0.8 -1.43,1.04 -0.49,0.25 -1.07,0.38 -1.75,0.38 -0.54,0 -1.05,-0.11 -1.51,-0.32 -0.47,-0.21 -0.87,-0.5 -1.21,-0.87 -0.35,-0.36 -0.61,-0.79 -0.81,-1.29 -0.19,-0.5 -0.28,-1.03 -0.28,-1.6 0,-0.58 0.09,-1.11 0.28,-1.6 0.2,-0.49 0.46,-0.92 0.81,-1.29 0.34,-0.36 0.74,-0.65 1.21,-0.86 0.46,-0.2 0.97,-0.31 1.51,-0.31 0.68,0 1.25,0.13 1.74,0.38 0.48,0.26 0.93,0.58 1.36,0.97l0.76 -0.81c-0.25,-0.24 -0.5,-0.45 -0.76,-0.64 -0.27,-0.19 -0.55,-0.36 -0.86,-0.49 -0.31,-0.14 -0.65,-0.25 -1.01,-0.32 -0.36,-0.08 -0.77,-0.11 -1.22,-0.11 -0.72,0 -1.38,0.13 -1.99,0.4 -0.61,0.26 -1.14,0.63 -1.58,1.09 -0.44,0.47 -0.79,1.01 -1.03,1.63 -0.25,0.62 -0.38,1.28 -0.38,1.98 0,0.72 0.13,1.38 0.38,2 0.24,0.62 0.59,1.16 1.03,1.61 0.44,0.46 0.96,0.82 1.56,1.08 0.6,0.26 1.26,0.39 1.97,0.39 0.45,0 0.86,-0.04 1.23,-0.12 0.36,-0.09 0.7,-0.2 1.02,-0.35 0.32,-0.15 0.62,-0.33 0.9,-0.55 0.27,-0.21 0.54,-0.44 0.79,-0.71zm8.39 -2.87l0 4.44 1.11 0 0 -9.86 -1.11 0 0 4.38 -5.68 0 0 -4.38 -1.11 0 0 9.86 1.11 0 0 -4.44 5.68 0zm13.16 -0.5c0,-0.69 -0.11,-1.34 -0.35,-1.95 -0.24,-0.62 -0.58,-1.16 -1.02,-1.62 -0.45,-0.47 -0.97,-0.83 -1.59,-1.11 -0.61,-0.27 -1.29,-0.4 -2.04,-0.4 -0.76,0 -1.44,0.13 -2.06,0.41 -0.62,0.28 -1.15,0.65 -1.59,1.12 -0.44,0.47 -0.78,1.01 -1.03,1.63 -0.24,0.61 -0.36,1.26 -0.36,1.94 0,0.69 0.12,1.34 0.36,1.95 0.24,0.62 0.58,1.16 1.02,1.62 0.44,0.47 0.97,0.83 1.58,1.11 0.61,0.27 1.3,0.4 2.05,0.4 0.75,0 1.43,-0.13 2.05,-0.41 0.62,-0.28 1.15,-0.65 1.59,-1.12 0.44,-0.47 0.79,-1.01 1.03,-1.62 0.24,-0.62 0.36,-1.27 0.36,-1.95zm-1.15 0.02c0,0.57 -0.1,1.09 -0.29,1.59 -0.19,0.49 -0.45,0.92 -0.79,1.28 -0.34,0.37 -0.75,0.66 -1.22,0.87 -0.47,0.21 -0.99,0.32 -1.55,0.32 -0.57,0 -1.09,-0.11 -1.56,-0.33 -0.47,-0.21 -0.88,-0.5 -1.23,-0.87 -0.35,-0.36 -0.62,-0.8 -0.81,-1.29 -0.19,-0.5 -0.29,-1.03 -0.29,-1.59 0,-0.57 0.1,-1.09 0.29,-1.59 0.19,-0.49 0.46,-0.92 0.79,-1.28 0.34,-0.37 0.75,-0.66 1.22,-0.87 0.48,-0.21 0.99,-0.32 1.56,-0.32 0.56,0 1.08,0.11 1.55,0.33 0.48,0.21 0.89,0.5 1.23,0.87 0.35,0.37 0.62,0.8 0.81,1.29 0.19,0.5 0.29,1.03 0.29,1.59zm12.77 -0.02c0,-0.69 -0.12,-1.34 -0.36,-1.95 -0.24,-0.62 -0.58,-1.16 -1.02,-1.62 -0.44,-0.47 -0.97,-0.83 -1.58,-1.11 -0.62,-0.27 -1.3,-0.4 -2.05,-0.4 -0.75,0 -1.44,0.13 -2.06,0.41 -0.61,0.28 -1.14,0.65 -1.59,1.12 -0.44,0.47 -0.78,1.01 -1.02,1.63 -0.25,0.61 -0.37,1.26 -0.37,1.94 0,0.69 0.12,1.34 0.36,1.95 0.24,0.62 0.58,1.16 1.02,1.62 0.44,0.47 0.97,0.83 1.58,1.11 0.62,0.27 1.3,0.4 2.05,0.4 0.75,0 1.44,-0.13 2.06,-0.41 0.61,-0.28 1.14,-0.65 1.59,-1.12 0.44,-0.47 0.78,-1.01 1.02,-1.62 0.25,-0.62 0.37,-1.27 0.37,-1.95zm-1.16 0.02c0,0.57 -0.09,1.09 -0.28,1.59 -0.2,0.49 -0.46,0.92 -0.8,1.28 -0.34,0.37 -0.74,0.66 -1.22,0.87 -0.47,0.21 -0.99,0.32 -1.55,0.32 -0.56,0 -1.08,-0.11 -1.56,-0.33 -0.47,-0.21 -0.88,-0.5 -1.23,-0.87 -0.34,-0.36 -0.61,-0.8 -0.81,-1.29 -0.19,-0.5 -0.29,-1.03 -0.29,-1.59 0,-0.57 0.1,-1.09 0.29,-1.59 0.2,-0.49 0.46,-0.92 0.8,-1.28 0.34,-0.37 0.74,-0.66 1.22,-0.87 0.47,-0.21 0.99,-0.32 1.55,-0.32 0.56,0 1.08,0.11 1.56,0.33 0.47,0.21 0.88,0.5 1.23,0.87 0.34,0.37 0.61,0.8 0.81,1.29 0.19,0.5 0.28,1.03 0.28,1.59zm3.16 4.92l6.66 0 0 -1.03 -5.55 0 0 -8.83 -1.11 0 0 9.86z"/>
  </g>
 </g>
</svg>
