<svg xmlns="http://www.w3.org/2000/svg" viewBox="0 0 972 442"><defs><style>.cls-1{fill:#c8336d;}.cls-2{fill:#2f9ccc;}.cls-3,.cls-4{fill:#fff;}.cls-4{isolation:isolate;font-size:51.8px;font-family:Poppins-SemiBold, Poppins;font-weight:600;}.cls-5{fill:none;}</style></defs><g id="Layer_2" data-name="Layer 2"><g id="Layer_1-2" data-name="Layer 1"><g id="Layer_2-2" data-name="Layer 2"><g id="Layer_1-2-2" data-name="Layer 1-2"><path class="cls-1" d="M216.23,47.64c-10.82-3.89-45-15.72-85.79,3.85-15.18,8.92-27.61,19.37-33,25.45-8.24,9.36-25.21,29.17-29.3,60.15a108.34,108.34,0,0,0,33.93,92.54C93,217.28,80.86,196.63,78.45,170A98.88,98.88,0,0,1,79,146.86c3.38-22.72,14.36-38,19.53-45a110.84,110.84,0,0,1,36.25-31.6c29.09-15.59,57.19-13.09,67.86-11.57Z"/><path class="cls-2" d="M203.89,70l19.8-14.91,3.34,1a28.36,28.36,0,0,0-3.09-13.37,25,25,0,0,0-2.05-3.31A109.82,109.82,0,0,1,266.74,59.2a119.32,119.32,0,0,1,16.62,15.55,122.56,122.56,0,0,1,17.35,25.45,121.3,121.3,0,0,1,7.85,19.15,126.4,126.4,0,0,1,4.11,18.25,131.23,131.23,0,0,1,1,29.31,155.65,155.65,0,0,0-15-38.56,133.19,133.19,0,0,0-9.51-14.78,120.39,120.39,0,0,0-19.28-20.31c-6.69-5.55-14.2-11.77-25.84-16.19-8.51-3.24-16.25-4.37-24.16-5.53C213.36,70.59,207.85,70.19,203.89,70Z"/><path class="cls-1" d="M233.58,135.41h33.55a90.39,90.39,0,0,0-30.85-30.47,89.26,89.26,0,0,0-19.08-8.29,91.88,91.88,0,0,0-36-3.47,89.35,89.35,0,0,0-36.68,12.1,85.57,85.57,0,0,0-29.16,29.88L148,135a61.79,61.79,0,0,1,31.81-16.77,59.46,59.46,0,0,1,22.17.19A62.79,62.79,0,0,1,233.58,135.41Z"/><path class="cls-2" d="M179.6,177.58C197.89,195.15,214,200.89,222,203q7.72,1.93,15.61,3.09a168.45,168.45,0,0,0,30.27,1.73l11.38,8.87a94.26,94.26,0,0,1-41.07,1.16,92.69,92.69,0,0,1-18.89-6,90.68,90.68,0,0,1-23.72-15A86.12,86.12,0,0,1,179.6,177.58Z"/><path class="cls-3" d="M114.7,150.2l39.33-.26,1,131.61,101,1.29q-.13,16.44-.26,32.9l-140.35,1Q115.07,233.49,114.7,150.2Z"/><path class="cls-3" d="M250.16,150.2l42.67.77,38.31,69.66,39.58-70.43,41.64.26L350.92,255.08l-.25,60.41-36.76.25V257.65Z"/><path class="cls-3" d="M415.71,315.49l.51-165,37,.25,52.95,94.86q26.34-47.58,52.69-95.11l38.31.25q.38,82.26.77,164.52l-35.73,1-.26-99L506.17,315.2l-55.52-98.45,1,98.45Z"/><path class="cls-3" d="M608.75,316.51l86.37-166q8.75,18.88,17.48,37.78a11.61,11.61,0,0,1,.26,8.23,10.6,10.6,0,0,1-1.8,3.08l54,105.65,41.11-64.84L747.82,151l43.18-.77L826.48,208l37.78-57.31,40.36-.25-54.49,87.95,50.64,76.86-43.19.77-29.05-45q-14.17,22.6-28.27,45.22l-70.43.51L690,237.34,648.36,316Z"/><text class="cls-4" transform="translate(111.7 371.87)">LEARN TODAY, FLY TOMORROW</text></g></g><rect class="cls-5" width="972" height="442"/></g></g></svg>