<svg xmlns="http://www.w3.org/2000/svg" viewBox="0 0 1125.4 577.83"><defs><style>.cls-1{fill:#c8336d;}.cls-2{fill:#2f9ccc;}.cls-3,.cls-4{fill:#fff;}.cls-4{font-size:51.81px;font-family:Poppins-SemiBold, Poppins;font-weight:600;}.cls-5{fill:none;}</style></defs><g id="Layer_2" data-name="Layer 2"><g id="Layer_1-2" data-name="Layer 1"><path class="cls-1" d="M295.08,82.9c-10.82-3.89-45-15.71-85.79,3.86-15.18,8.86-27.61,19.37-33,25.45-8.25,9.36-25.22,29.17-29.31,60.15A108.39,108.39,0,0,0,181,264.89c-9.11-12.34-21.24-33-23.65-59.63a99.28,99.28,0,0,1,.52-23.14c3.38-22.72,14.37-38,19.53-45a111,111,0,0,1,36.25-31.62C242.69,89.94,270.79,92.44,281.46,94Z"/><path class="cls-2" d="M282.75,105.26l19.79-14.9,3.34,1A28.39,28.39,0,0,0,302.8,78a26.62,26.62,0,0,0-2.06-3.34A109.88,109.88,0,0,1,345.6,94.47,119,119,0,0,1,362.18,110a123.17,123.17,0,0,1,17.35,25.45,121.68,121.68,0,0,1,7.84,19.15,124.08,124.08,0,0,1,4.11,18.25,131.28,131.28,0,0,1,1,29.3,155.76,155.76,0,0,0-15-38.55A130.75,130.75,0,0,0,368,148.84a120.12,120.12,0,0,0-19.28-20.31c-6.69-5.55-14.2-11.77-25.83-16.2-8.52-3.23-16.26-4.36-24.17-5.52C292.19,105.86,286.7,105.45,282.75,105.26Z"/><path class="cls-1" d="M312.44,170.62H346a90.43,90.43,0,0,0-30.85-30.46,89.48,89.48,0,0,0-19.08-8.29A91.43,91.43,0,0,0,260,128.4a89.12,89.12,0,0,0-36.63,12.15,85.46,85.46,0,0,0-29.11,29.88l32.58-.19a61.77,61.77,0,0,1,31.81-16.78,59.46,59.46,0,0,1,22.17.2A63,63,0,0,1,312.44,170.62Z"/><path class="cls-2" d="M258.45,212.84c18.29,17.58,34.39,23.31,42.42,25.45a158.62,158.62,0,0,0,15.61,3.08,168.16,168.16,0,0,0,30.27,1.74L358.13,252a94.34,94.34,0,0,1-41.07,1.15,92.51,92.51,0,0,1-18.89-6,90.51,90.51,0,0,1-23.71-15A85.62,85.62,0,0,1,258.45,212.84Z"/><path class="cls-3" d="M193.55,185.47l39.33-.26q.51,65.81,1,131.61l101,1.28q-.14,16.45-.26,32.91l-140.35,1Q193.93,268.75,193.55,185.47Z"/><path class="cls-3" d="M329,185.47l42.67.77q19.14,34.83,38.3,69.66l39.58-70.43,41.65.25L429.77,290.34l-.25,60.41-36.76.26v-58.1Z"/><path class="cls-3" d="M494.56,350.75l.51-165,37,.26L585,280.83l52.7-95.11L676,186q.38,82.26.77,164.51l-35.73,1-.26-99L585,350.49,529.52,252q.51,49.23,1,98.45Z"/><path class="cls-3" d="M687.6,351.78,774,185.72q8.74,18.9,17.48,37.79a11.56,11.56,0,0,1,.26,8.23,10.42,10.42,0,0,1-1.8,3.08l54,105.65L885,275.69l-58.35-89.45,43.19-.77,35.47,57.83L943.12,186l40.35-.26q-27.24,44-54.49,87.91l50.64,76.86-43.19.77-29-45q-14.14,22.62-28.28,45.24l-70.43.52-39.85-79.43-41.64,78.65Z"/><text class="cls-4" transform="translate(193.55 423.15)">LEARN TODAY, FLY TOMORROW</text><rect class="cls-5" width="1125.4" height="577.83"/></g></g></svg>