<svg xmlns="http://www.w3.org/2000/svg" viewBox="0 0 837.26 377.2"><defs><style>.cls-1{fill:#c8336d;}.cls-2{fill:#2f9ccc;}.cls-3,.cls-4{fill:#fff;}.cls-4{font-size:51.81px;font-family:Poppins-SemiBold, Poppins;font-weight:600;}</style></defs><g id="Layer_2" data-name="Layer 2"><g id="Layer_1-2" data-name="Layer 1"><path class="cls-1" d="M148.87,8.23c-10.82-3.89-45-15.72-85.79,3.85C47.9,21,35.47,31.45,30.11,37.53,21.87,46.89,4.9,66.7.81,97.68a108.32,108.32,0,0,0,33.93,92.54c-9.11-12.35-21.24-33-23.65-59.64a98.55,98.55,0,0,1,.52-23.13c3.38-22.72,14.36-38,19.53-45A110.85,110.85,0,0,1,67.39,30.85c29.09-15.59,57.19-13.09,67.86-11.57Z"/><path class="cls-2" d="M136.53,30.59l19.8-14.91,3.34,1a28.46,28.46,0,0,0-3.09-13.37A25.49,25.49,0,0,0,154.53,0a109.79,109.79,0,0,1,44.85,19.79A119.15,119.15,0,0,1,216,35.34a123.06,123.06,0,0,1,17.35,25.45,121.4,121.4,0,0,1,7.85,19.15,126.17,126.17,0,0,1,4.11,18.25,131.37,131.37,0,0,1,1,29.31,155.86,155.86,0,0,0-15-38.56,132.81,132.81,0,0,0-9.51-14.78,120.52,120.52,0,0,0-19.28-20.31c-6.69-5.55-14.2-11.77-25.84-16.19-8.51-3.24-16.25-4.37-24.16-5.53C146,31.18,140.49,30.78,136.53,30.59Z"/><path class="cls-1" d="M166.22,96h33.55a90.36,90.36,0,0,0-30.85-30.47,89.48,89.48,0,0,0-19.08-8.29,91.83,91.83,0,0,0-36-3.47A89.37,89.37,0,0,0,77.16,65.87,85.59,85.59,0,0,0,48,95.75l32.59-.19a61.77,61.77,0,0,1,31.81-16.77,59.61,59.61,0,0,1,22.17.19A62.84,62.84,0,0,1,166.22,96Z"/><path class="cls-2" d="M112.24,138.17c18.29,17.57,34.39,23.31,42.42,25.44a159.08,159.08,0,0,0,15.61,3.09,168,168,0,0,0,30.27,1.73q5.69,4.44,11.38,8.87a94.16,94.16,0,0,1-41.07,1.16,92.69,92.69,0,0,1-18.89-6,90.71,90.71,0,0,1-23.72-15A86,86,0,0,1,112.24,138.17Z"/><path class="cls-3" d="M47.34,110.79l39.33-.26,1,131.61,101,1.29q-.14,16.45-.26,32.9l-140.35,1Q47.72,194.08,47.34,110.79Z"/><path class="cls-3" d="M182.8,110.79l42.67.77,38.31,69.66,39.58-70.43,41.64.26L283.56,215.67l-.25,60.41-36.76.25V218.24Z"/><path class="cls-3" d="M348.35,276.08l.51-165,37,.25,52.95,94.86q26.34-47.57,52.69-95.11l38.31.25q.38,82.26.77,164.52l-35.73,1-.26-99-55.78,97.94-55.52-98.45,1,98.45Z"/><path class="cls-3" d="M541.39,277.1l86.37-166q8.75,18.89,17.48,37.78a11.62,11.62,0,0,1,.26,8.23,10.42,10.42,0,0,1-1.8,3.08l54,105.65L738.81,201l-58.35-89.46,43.18-.77,35.48,57.84L796.9,111.3l40.36-.25L782.77,199l50.64,76.86-43.19.77-29.05-45Q747,254.24,732.9,276.85l-70.43.51-39.85-79.43L581,276.59Z"/><text class="cls-4" transform="translate(47.34 346.47)">LEARN TODAY, FLY TOMORROW</text></g></g></svg>