<svg xmlns="http://www.w3.org/2000/svg" viewBox="0 0 837.24 363.18"><defs><style>.cls-1{fill:#c8336d;}.cls-2{fill:#2f9ccc;}.cls-3,.cls-4{fill:#fff;}.cls-4{isolation:isolate;font-size:51.8px;font-family:Poppins-SemiBold, Poppins;font-weight:600;}</style></defs><g id="Layer_2" data-name="Layer 2"><g id="Layer_1-2" data-name="Layer 1"><g id="Layer_2-2" data-name="Layer 2"><g id="Layer_1-2-2" data-name="Layer 1-2"><path class="cls-1" d="M148.85,8.23c-10.82-3.89-45-15.72-85.79,3.85C47.88,21,35.45,31.45,30.09,37.53,21.85,46.89,4.88,66.7.79,97.68a108.34,108.34,0,0,0,33.93,92.54c-9.11-12.35-21.24-33-23.65-59.64a98.89,98.89,0,0,1,.52-23.13c3.38-22.72,14.36-38,19.53-45a110.84,110.84,0,0,1,36.25-31.6c29.09-15.59,57.19-13.09,67.86-11.57Z"/><path class="cls-2" d="M136.51,30.59l19.8-14.91,3.34,1a28.36,28.36,0,0,0-3.09-13.37A25.66,25.66,0,0,0,154.51,0a109.82,109.82,0,0,1,44.85,19.79A118.77,118.77,0,0,1,216,35.34a122.56,122.56,0,0,1,17.35,25.45,121.3,121.3,0,0,1,7.85,19.15,125.08,125.08,0,0,1,4.11,18.25,131.23,131.23,0,0,1,1,29.31,155.8,155.8,0,0,0-15-38.56,133.19,133.19,0,0,0-9.51-14.78A120,120,0,0,0,202.5,53.85c-6.69-5.55-14.2-11.77-25.84-16.19-8.51-3.24-16.25-4.37-24.16-5.53C146,31.18,140.47,30.78,136.51,30.59Z"/><path class="cls-1" d="M166.2,96h33.55A90.31,90.31,0,0,0,168.9,65.53a89,89,0,0,0-19.08-8.29,91.88,91.88,0,0,0-36-3.47,89.35,89.35,0,0,0-36.68,12.1A85.65,85.65,0,0,0,48,95.75l32.59-.19a61.79,61.79,0,0,1,31.81-16.77,59.67,59.67,0,0,1,22.17.19A62.87,62.87,0,0,1,166.2,96Z"/><path class="cls-2" d="M112.22,138.17c18.29,17.57,34.39,23.31,42.42,25.44q7.73,1.94,15.61,3.09a167.54,167.54,0,0,0,30.27,1.73l11.38,8.87a94.11,94.11,0,0,1-41.07,1.16,92.88,92.88,0,0,1-18.89-6,90.68,90.68,0,0,1-23.72-15A85.94,85.94,0,0,1,112.22,138.17Z"/><path class="cls-3" d="M47.32,110.79l39.33-.26,1,131.61,101,1.29q-.14,16.45-.26,32.9L48,277.33Q47.71,194.08,47.32,110.79Z"/><path class="cls-3" d="M182.78,110.79l42.67.77,38.31,69.66,39.58-70.43,41.64.26L283.54,215.67l-.25,60.41-36.76.25V218.24Z"/><path class="cls-3" d="M348.33,276.08l.51-165,37,.25,53,94.86q26.34-47.56,52.69-95.11l38.31.25q.39,82.26.77,164.52l-35.73,1-.26-99-55.78,97.94-55.52-98.45,1,98.45Z"/><path class="cls-3" d="M541.37,277.1l86.37-166q8.76,18.89,17.48,37.78a11.62,11.62,0,0,1,.26,8.23,10.6,10.6,0,0,1-1.8,3.08l54,105.65L738.79,201l-58.35-89.46,43.18-.77,35.48,57.84,37.78-57.31,40.36-.25-54.49,88,50.64,76.86-43.19.77-29.05-45q-14.16,22.6-28.27,45.22l-70.43.51L622.6,197.93,581,276.59Z"/><text class="cls-4" transform="translate(44.32 332.47)">LEARN TODAY, FLY TOMORROW</text></g></g></g></g></svg>